<?xml version="1.0" encoding="UTF-8"?>
<svg id="canvas" xmlns="http://www.w3.org/2000/svg" viewBox="0 0 169.07 166.67">
  <path d="M19.37,20.27c-.89,1.28-1.08,2.66-1.3,6.51-.22,3.86,.12,6.39,.2,12.77,.09,6.38,.17,10.64,.22,19.13,.06,8.5,.11,13.61,.05,23.34-.06,9.72-.14,15.4-.35,25.28-.21,9.88-.34,15.43-.71,24.12-.37,8.68-.61,13.18-1.16,19.31-.55,6.14-1.49,8.71-1.59,11.36-.11,2.65,1.18,2.99,1.05,1.89-.12-1.1-.52-2.8-1.67-7.39-1.14-4.58-2.44-8.17-4.04-15.53s-2.67-12.21-3.96-21.27c-1.28-9.06-1.9-14.4-2.48-24.03-.58-9.63-.73-14.84-.42-24.12,.32-9.29,.72-14.07,1.99-22.29,1.26-8.22,2.19-12.24,4.34-18.8,2.14-6.56,3.54-9.55,6.38-14.02,2.84-4.46,4.59-6.1,7.8-8.31,3.21-2.2,4.92-2.54,8.24-2.71,3.32-.16,5.1,.33,8.36,1.89,3.27,1.56,5.14,2.9,7.96,5.91,2.82,3.01,4.4,5.08,6.13,9.15,1.74,4.07,2.47,6.54,2.54,11.2,.08,4.66-.32,7.28-2.16,12.08-1.83,4.81-3.44,7.47-7.01,11.93-3.57,4.47-6.21,6.74-10.85,10.4-4.64,3.65-7.68,5.38-12.35,7.87-4.67,2.49-7.37,3.12-11,4.57-3.64,1.44-5.33,1.32-7.17,2.63s-2.13,2.2-2.05,3.92c.08,1.72,.43,2.99,2.46,4.69,2.02,1.7,3.98,1.74,7.66,3.79,3.68,2.04,6.23,3.22,10.73,6.45s7.12,5.42,11.77,9.68,7.11,6.92,11.48,11.61,6.51,7.41,10.37,11.86c3.85,4.45,5.57,6.84,8.91,10.4,3.35,3.56,4.62,5.45,7.81,7.4,3.18,1.95,5.02,2.76,8.12,2.37,3.1-.39,4.96-1.38,7.39-4.3,2.42-2.93,3.04-5.37,4.75-10.31,1.71-4.94,2.39-8.17,3.8-14.4,1.41-6.22,2.07-10.13,3.26-16.72,1.19-6.6,1.75-10.35,2.7-16.24,.96-5.89,1.44-8.81,2.07-13.21,.63-4.41,1.36-6.25,1.08-8.82-.27-2.56-1.16-3.44-2.46-4.01-1.3-.58-2.73-.36-4.03,1.14-1.3,1.5-2.14,2.97-2.46,6.36-.31,3.39,.29,5.78,.89,10.59,.59,4.8,.89,7.89,2.1,13.44,1.21,5.55,1.89,8.88,3.93,14.31,2.04,5.44,3.21,8.44,6.28,12.85s4.98,6.64,9.06,9.22c4.07,2.58,6.69,3.56,11.33,3.69,4.64,.14,7.37-.6,11.87-3.02,4.5-2.43,6.91-4.46,10.63-9.1,3.73-4.63,5.56-7.76,8-14.07,2.43-6.31,3.45-10.27,4.19-17.49,.75-7.22,.76-11.5-.47-18.61s-2.36-11.05-5.67-16.93c-3.3-5.87-5.69-8.84-10.88-12.43-5.19-3.59-8.67-4.87-15.08-5.52-6.41-.65-10.29,.06-16.96,2.27-6.66,2.2-10.49,4.63-16.34,8.75-5.86,4.12-8.77,7.19-12.93,11.83-4.17,4.64-5.78,7.51-7.9,11.36-2.12,3.84-2.45,5.56-2.7,7.86-.24,2.3,.86,2.94,1.47,3.65,.61,.71,1.04,.42,1.57-.1,.53-.53,.28-.71,1.06-2.53,.79-1.81,.96-3.03,2.85-6.57,1.9-3.53,2.91-6.57,6.64-11.08,3.74-4.52,6.55-7.52,12.02-11.5,5.48-3.97,9.2-6.27,15.37-8.37,6.18-2.09,9.71-2.67,15.5-2.11,5.79,.56,8.79,1.68,13.45,4.91,4.67,3.24,6.84,5.85,9.88,11.26,3.03,5.42,4.16,9.13,5.28,15.82,1.13,6.7,1.12,10.84,.34,17.66-.78,6.83-1.85,10.61-4.24,16.46s-4.27,8.69-7.72,12.8c-3.45,4.1-5.71,5.7-9.52,7.72-3.82,2.01-5.87,2.45-9.58,2.34-3.71-.1-5.61-.73-8.97-2.87-3.37-2.15-5.15-3.91-7.86-7.85-2.72-3.94-3.92-6.74-5.72-11.84-1.8-5.11-2.48-8.36-3.28-13.67-.8-5.32-.78-8.37-.71-12.9,.08-4.52,1.02-6.66,1.09-9.75,.06-3.09-.13-4.24-.76-5.7-.63-1.47-1.52-1.93-2.39-1.62-.86,.32-1.52,.85-1.94,3.18-.42,2.33,.12,4.16-.17,8.48-.29,4.32-.51,7.28-1.28,13.12-.77,5.85-1.33,9.6-2.57,16.1s-2.02,10.4-3.62,16.4c-1.6,6.01-2.59,9.2-4.38,13.63-1.79,4.43-3,6.24-4.58,8.51-1.58,2.27-1.73,2.67-3.3,2.86-1.58,.19-2.18-.33-4.59-1.91-2.4-1.59-4.13-2.84-7.46-6.01-3.32-3.18-5.22-5.52-9.16-9.85-3.94-4.34-6.14-7.07-10.54-11.83-4.4-4.76-6.86-7.46-11.46-11.98-4.6-4.52-7.16-6.87-11.53-10.62-4.36-3.75-6.68-5.61-10.28-8.14-3.6-2.53-5.35-3.81-7.72-4.52-2.37-.71-3.72,.46-4.13,.95-.42,.49,.17,1.65,2.07,1.49,1.9-.16,3.71-.68,7.41-2.28,3.71-1.6,6.35-2.88,11.11-5.74,4.76-2.85,7.87-4.62,12.71-8.53,4.84-3.92,7.63-6.25,11.48-11.04,3.86-4.8,5.7-7.62,7.81-12.94,2.11-5.31,2.72-8.3,2.76-13.64,.04-5.34-.66-8.29-2.54-13.06-1.89-4.78-3.58-7.24-6.88-10.83-3.29-3.59-5.49-5.3-9.6-7.13C38.41,.8,35.84,.2,31.58,.63c-4.26,.42-6.61,1.32-10.36,4.13-3.74,2.8-5.45,4.93-8.37,9.9-2.92,4.98-4.16,8.12-6.22,14.98-2.07,6.85-2.91,10.93-4.11,19.31-1.19,8.39-1.56,13.21-1.86,22.6-.31,9.39-.16,14.63,.33,24.35,.49,9.73,1.07,15.09,2.11,24.28,1.05,9.18,1.83,14.09,3.12,21.63,1.3,7.54,1.82,11.3,3.36,16.08,1.54,4.78,2.46,6.8,4.34,7.84,1.87,1.03,3.85,.27,5.02-2.68,1.17-2.95,.55-5.79,.81-12.09,.26-6.31,.29-10.73,.49-19.45,.21-8.72,.32-14.27,.53-24.16,.21-9.89,.31-15.57,.51-25.3,.21-9.72,.28-14.84,.52-23.33,.24-8.49,.41-12.75,.69-19.11s.7-8.84,.7-12.68,.06-5.19-.71-6.52c-.76-1.33-2.23-1.41-3.11-.14" style="fill: #fff; stroke: #fff;"/>
  <path d="M133.38,140.37c.71,.89,1.57,1.31,3.12,1.23,1.56-.08,2.79-.42,4.66-1.62,1.88-1.2,2.95-2.18,4.72-4.38s2.44-3.9,4.13-6.61c1.69-2.7,2.51-4.33,4.32-6.9,1.81-2.58,2.95-3.81,4.72-5.99,1.78-2.18,2.92-3.19,4.15-4.92,1.23-1.74,1.45-2.52,2-3.74,.56-1.23,.85-1.57,.76-2.38-.08-.81-.39-1.39-1.2-1.68-.81-.29-1.44-.25-2.86,.23s-2.4,.74-4.25,2.18c-1.85,1.43-3.04,2.68-5,5-1.96,2.32-2.85,3.98-4.8,6.6-1.96,2.62-3.03,4.12-4.97,6.49-1.95,2.37-3.21,3.51-4.76,5.37-1.55,1.85-2.14,2.68-3.01,3.91-.87,1.24-.91,1.46-1.34,2.26s-.73,.75-.81,1.74c-.07,.99-.29,2.33,.42,3.21" style="fill: #fff; stroke: #fff;"/>
</svg>