<svg xmlns="http://www.w3.org/2000/svg" id="canvas" viewBox="456.548 579.697 174.069 171.668"><path d="M 478.42,602.47 C 477.53 603.75, 477.34 605.13, 477.12 608.98 C 476.90 612.84, 477.24 615.37, 477.32 621.75 C 477.41 628.13, 477.49 632.39, 477.54 640.88 C 477.60 649.38, 477.65 654.49, 477.59 664.22 C 477.53 673.94, 477.45 679.62, 477.24 689.50 C 477.03 699.38, 476.90 704.93, 476.53 713.62 C 476.16 722.30, 475.92 726.80, 475.37 732.93 C 474.82 739.07, 473.88 741.64, 473.78 744.29 C 473.67 746.94, 474.96 747.28, 474.83 746.18 C 474.71 745.08, 474.31 743.38, 473.16 738.79 C 472.02 734.21, 470.72 730.62, 469.12 723.26 C 467.52 715.90, 466.45 711.05, 465.16 701.99 C 463.88 692.93, 463.26 687.59, 462.68 677.96 C 462.10 668.33, 461.95 663.12, 462.26 653.84 C 462.58 644.55, 462.98 639.77, 464.25 631.55 C 465.51 623.33, 466.44 619.31, 468.59 612.75 C 470.73 606.19, 472.13 603.20, 474.97 598.73 C 477.81 594.27, 479.56 592.63, 482.77 590.42 C 485.98 588.22, 487.69 587.88, 491.01 587.71 C 494.33 587.55, 496.11 588.04, 499.37 589.60 C 502.64 591.16, 504.51 592.50, 507.33 595.51 C 510.15 598.52, 511.73 600.59, 513.46 604.66 C 515.20 608.73, 515.93 611.20, 516.00 615.86 C 516.08 620.52, 515.68 623.14, 513.84 627.94 C 512.01 632.75, 510.40 635.41, 506.83 639.87 C 503.26 644.34, 500.62 646.61, 495.98 650.27 C 491.34 653.92, 488.30 655.65, 483.63 658.14 C 478.96 660.63, 476.26 661.26, 472.63 662.71 C 468.99 664.15, 467.30 664.03, 465.46 665.34 C 463.62 666.65, 463.33 667.54, 463.41 669.26 C 463.49 670.98, 463.84 672.25, 465.87 673.95 C 467.89 675.65, 469.85 675.69, 473.53 677.74 C 477.21 679.78, 479.76 680.96, 484.26 684.19 C 488.76 687.42, 491.38 689.61, 496.03 693.87 C 500.68 698.13, 503.14 700.79, 507.51 705.48 C 511.88 710.17, 514.02 712.89, 517.88 717.34 C 521.73 721.79, 523.45 724.18, 526.79 727.74 C 530.14 731.30, 531.41 733.19, 534.60 735.14 C 537.78 737.09, 539.62 737.90, 542.72 737.51 C 545.82 737.12, 547.68 736.13, 550.11 733.21 C 552.53 730.28, 553.15 727.84, 554.86 722.90 C 556.57 717.96, 557.25 714.73, 558.66 708.50 C 560.07 702.28, 560.73 698.37, 561.92 691.78 C 563.11 685.18, 563.67 681.43, 564.62 675.54 C 565.58 669.65, 566.06 666.73, 566.69 662.33 C 567.32 657.92, 568.05 656.08, 567.77 653.51 C 567.50 650.95, 566.61 650.07, 565.31 649.50 C 564.01 648.92, 562.58 649.14, 561.28 650.64 C 559.98 652.14, 559.14 653.61, 558.82 657.00 C 558.51 660.39, 559.11 662.78, 559.71 667.59 C 560.30 672.39, 560.60 675.48, 561.81 681.03 C 563.02 686.58, 563.70 689.91, 565.74 695.34 C 567.78 700.78, 568.95 703.78, 572.02 708.19 C 575.09 712.60, 577.00 714.83, 581.08 717.41 C 585.15 719.99, 587.77 720.97, 592.41 721.10 C 597.05 721.24, 599.78 720.50, 604.28 718.08 C 608.78 715.65, 611.19 713.62, 614.91 708.98 C 618.64 704.35, 620.47 701.22, 622.91 694.91 C 625.34 688.60, 626.36 684.64, 627.10 677.42 C 627.85 670.20, 627.86 665.92, 626.63 658.81 C 625.40 651.70, 624.27 647.76, 620.96 641.88 C 617.66 636.01, 615.27 633.04, 610.08 629.45 C 604.89 625.86, 601.41 624.58, 595.00 623.93 C 588.59 623.28, 584.71 623.99, 578.04 626.20 C 571.38 628.40, 567.55 630.83, 561.70 634.95 C 555.84 639.07, 552.93 642.14, 548.77 646.78 C 544.60 651.42, 542.99 654.29, 540.87 658.14 C 538.75 661.98, 538.42 663.70, 538.17 666.00 C 537.93 668.30, 539.03 668.94, 539.64 669.65 C 540.25 670.36, 540.68 670.07, 541.21 669.55 C 541.74 669.02, 541.49 668.84, 542.27 667.02 C 543.06 665.21, 543.23 663.99, 545.12 660.45 C 547.02 656.92, 548.03 653.88, 551.76 649.37 C 555.50 644.85, 558.31 641.85, 563.78 637.87 C 569.26 633.90, 572.98 631.60, 579.15 629.50 C 585.33 627.41, 588.86 626.83, 594.65 627.39 C 600.44 627.95, 603.44 629.07, 608.10 632.30 C 612.77 635.54, 614.94 638.15, 617.98 643.56 C 621.01 648.98, 622.14 652.69, 623.26 659.38 C 624.39 666.08, 624.38 670.22, 623.60 677.04 C 622.82 683.87, 621.75 687.65, 619.36 693.50 C 616.97 699.35, 615.09 702.19, 611.64 706.30 C 608.19 710.40, 605.93 712.00, 602.12 714.02 C 598.30 716.03, 596.25 716.47, 592.54 716.36 C 588.83 716.26, 586.93 715.63, 583.57 713.49 C 580.20 711.34, 578.42 709.58, 575.71 705.64 C 572.99 701.70, 571.79 698.90, 569.99 693.80 C 568.19 688.69, 567.51 685.44, 566.71 680.13 C 565.91 674.81, 565.93 671.76, 566.00 667.23 C 566.08 662.71, 567.02 660.57, 567.09 657.48 C 567.15 654.39, 566.96 653.24, 566.33 651.78 C 565.70 650.31, 564.81 649.85, 563.94 650.16 C 563.08 650.48, 562.42 651.01, 562.00 653.34 C 561.58 655.67, 562.12 657.50, 561.83 661.82 C 561.54 666.14, 561.32 669.10, 560.55 674.94 C 559.78 680.79, 559.22 684.54, 557.98 691.04 C 556.74 697.54, 555.96 701.44, 554.36 707.44 C 552.76 713.45, 551.77 716.64, 549.98 721.07 C 548.19 725.50, 546.98 727.31, 545.40 729.58 C 543.82 731.85, 543.67 732.25, 542.10 732.44 C 540.52 732.63, 539.92 732.11, 537.51 730.53 C 535.11 728.94, 533.38 727.69, 530.05 724.52 C 526.73 721.34, 524.83 719.00, 520.89 714.67 C 516.95 710.33, 514.75 707.60, 510.35 702.84 C 505.95 698.08, 503.49 695.38, 498.89 690.86 C 494.29 686.34, 491.73 683.99, 487.36 680.24 C 483.00 676.49, 480.68 674.63, 477.08 672.10 C 473.48 669.57, 471.73 668.29, 469.36 667.58 C 466.99 666.87, 465.64 668.04, 465.23 668.53 C 464.81 669.02, 465.40 670.18, 467.30 670.02 C 469.20 669.86, 471.01 669.34, 474.71 667.74 C 478.42 666.14, 481.06 664.86, 485.82 662.00 C 490.58 659.15, 493.69 657.38, 498.53 653.47 C 503.37 649.55, 506.16 647.22, 510.01 642.43 C 513.87 637.63, 515.71 634.81, 517.82 629.49 C 519.93 624.18, 520.54 621.19, 520.58 615.85 C 520.62 610.51, 519.92 607.56, 518.04 602.79 C 516.15 598.01, 514.46 595.55, 511.16 591.96 C 507.87 588.37, 505.67 586.66, 501.56 584.83 C 497.46 583.00, 494.89 582.40, 490.63 582.83 C 486.37 583.25, 484.02 584.15, 480.27 586.96 C 476.53 589.76, 474.82 591.89, 471.90 596.86 C 468.98 601.84, 467.74 604.98, 465.68 611.84 C 463.61 618.69, 462.77 622.77, 461.57 631.15 C 460.38 639.54, 460.01 644.36, 459.71 653.75 C 459.40 663.14, 459.55 668.38, 460.04 678.10 C 460.53 687.83, 461.11 693.19, 462.15 702.38 C 463.20 711.56, 463.98 716.47, 465.27 724.01 C 466.57 731.55, 467.09 735.31, 468.63 740.09 C 470.17 744.87, 471.09 746.89, 472.97 747.93 C 474.84 748.96, 476.82 748.20, 477.99 745.25 C 479.16 742.30, 478.54 739.46, 478.80 733.16 C 479.06 726.85, 479.09 722.43, 479.29 713.71 C 479.50 704.99, 479.61 699.44, 479.82 689.55 C 480.03 679.66, 480.13 673.98, 480.33 664.25 C 480.54 654.53, 480.61 649.41, 480.85 640.92 C 481.09 632.43, 481.26 628.17, 481.54 621.81 C 481.82 615.45, 482.24 612.97, 482.24 609.13 C 482.24 605.29, 482.30 603.94, 481.53 602.61 C 480.77 601.28, 479.30 601.20, 478.42 602.47" style="stroke: black; fill: black;"/><path d="M 592.43,722.57 C 593.14 723.46, 594.00 723.88, 595.55 723.80 C 597.11 723.72, 598.34 723.38, 600.21 722.18 C 602.09 720.98, 603.16 720.00, 604.93 717.80 C 606.70 715.60, 607.37 713.90, 609.06 711.19 C 610.75 708.49, 611.57 706.86, 613.38 704.29 C 615.19 701.71, 616.33 700.48, 618.10 698.30 C 619.88 696.12, 621.02 695.11, 622.25 693.38 C 623.48 691.64, 623.70 690.86, 624.25 689.64 C 624.81 688.41, 625.10 688.07, 625.01 687.26 C 624.93 686.45, 624.62 685.87, 623.81 685.58 C 623.00 685.29, 622.37 685.33, 620.95 685.81 C 619.53 686.29, 618.55 686.55, 616.70 687.99 C 614.85 689.42, 613.66 690.67, 611.70 692.99 C 609.74 695.31, 608.85 696.97, 606.90 699.59 C 604.94 702.21, 603.87 703.71, 601.93 706.08 C 599.98 708.45, 598.72 709.59, 597.17 711.45 C 595.62 713.30, 595.03 714.13, 594.16 715.36 C 593.29 716.60, 593.25 716.82, 592.82 717.62 C 592.39 718.42, 592.09 718.37, 592.01 719.36 C 591.94 720.35, 591.72 721.69, 592.43 722.57" style="stroke: black; fill: black;"/></svg>