<svg xmlns="http://www.w3.org/2000/svg" id="canvas" viewBox="220.763 557.197 723.401 273.778"><path d="M 242.65,597.18 C 241.77 598.36, 241.47 599.55, 241.30 603.20 C 241.13 606.85, 241.59 609.25, 241.81 615.42 C 242.03 621.59, 242.17 625.70, 242.39 634.04 C 242.61 642.38, 242.77 647.52, 242.91 657.10 C 243.05 666.68, 243.09 672.31, 243.11 681.94 C 243.12 691.57, 243.15 696.92, 242.99 705.28 C 242.84 713.64, 242.64 717.92, 242.33 723.73 C 242.01 729.53, 241.29 731.99, 241.42 734.30 C 241.55 736.62, 243.05 736.72, 242.97 735.30 C 242.89 733.87, 242.30 732.06, 241.01 727.17 C 239.72 722.27, 238.37 718.51, 236.51 710.84 C 234.65 703.16, 233.40 698.14, 231.71 688.79 C 230.02 679.44, 229.13 673.96, 228.07 664.10 C 227.00 654.23, 226.59 648.90, 226.39 639.46 C 226.18 630.02, 226.30 625.19, 227.06 616.88 C 227.81 608.57, 228.47 604.51, 230.17 597.91 C 231.87 591.32, 233.08 588.31, 235.57 583.92 C 238.06 579.53, 239.66 577.99, 242.61 575.98 C 245.55 573.97, 247.05 573.76, 250.28 573.88 C 253.51 574.00, 255.33 574.61, 258.76 576.58 C 262.19 578.55, 264.27 580.19, 267.45 583.72 C 270.62 587.26, 272.48 589.67, 274.62 594.26 C 276.76 598.85, 277.70 601.60, 278.15 606.68 C 278.59 611.75, 278.35 614.62, 276.86 619.64 C 275.37 624.67, 273.92 627.37, 270.70 631.81 C 267.47 636.25, 265.01 638.47, 260.73 641.84 C 256.45 645.21, 253.58 646.73, 249.30 648.66 C 245.02 650.59, 242.46 650.65, 239.34 651.49 C 236.22 652.34, 235.01 652.14, 233.70 652.89 C 232.39 653.64, 232.30 654.19, 232.79 655.23 C 233.27 656.28, 233.81 657.20, 236.13 658.12 C 238.45 659.04, 240.46 658.43, 244.38 659.86 C 248.31 661.28, 251.05 662.28, 255.75 665.26 C 260.46 668.25, 263.22 670.42, 267.91 674.78 C 272.60 679.14, 275.02 681.96, 279.18 687.07 C 283.34 692.18, 285.32 695.24, 288.72 700.35 C 292.12 705.45, 293.63 708.24, 296.19 712.59 C 298.74 716.94, 299.41 719.23, 301.50 722.11 C 303.59 724.99, 304.52 726.11, 306.64 727.00 C 308.77 727.88, 310.15 727.70, 312.12 726.53 C 314.09 725.37, 315.36 724.20, 316.49 721.18 C 317.62 718.17, 317.24 715.81, 317.77 711.46 C 318.31 707.10, 318.46 704.23, 319.16 699.41 C 319.86 694.59, 320.32 691.66, 321.28 687.37 C 322.24 683.07, 323.41 680.75, 323.96 677.92 C 324.52 675.10, 324.23 673.91, 324.06 673.25 C 323.89 672.58, 323.05 673.06, 323.10 674.61 C 323.15 676.16, 323.24 677.83, 324.31 680.99 C 325.38 684.16, 326.51 686.56, 328.46 690.43 C 330.41 694.31, 331.52 696.85, 334.05 700.39 C 336.58 703.93, 337.90 705.97, 341.11 708.14 C 344.33 710.31, 346.48 711.33, 350.13 711.25 C 353.77 711.16, 355.92 710.13, 359.34 707.71 C 362.76 705.29, 364.29 703.23, 367.22 699.14 C 370.16 695.05, 371.55 692.14, 374.02 687.26 C 376.49 682.39, 377.84 679.02, 379.58 674.77 C 381.31 670.52, 382.37 668.22, 382.68 666.02 C 382.99 663.83, 381.49 662.89, 381.14 663.79 C 380.79 664.69, 380.59 666.15, 380.93 670.52 C 381.28 674.89, 381.94 678.44, 382.88 685.65 C 383.81 692.86, 384.43 697.57, 385.60 706.58 C 386.78 715.59, 387.52 720.85, 388.75 730.68 C 389.98 740.51, 390.73 745.96, 391.74 755.74 C 392.75 765.53, 393.41 770.76, 393.79 779.59 C 394.17 788.42, 394.27 792.93, 393.65 799.91 C 393.04 806.89, 392.38 810.11, 390.73 814.51 C 389.08 818.91, 387.82 820.22, 385.42 821.91 C 383.02 823.59, 381.81 823.62, 378.74 822.93 C 375.67 822.24, 373.60 821.29, 370.07 818.46 C 366.53 815.64, 364.22 813.38, 361.08 808.81 C 357.93 804.23, 356.18 801.24, 354.33 795.58 C 352.48 789.93, 351.85 786.65, 351.82 780.55 C 351.79 774.45, 352.30 771.21, 354.17 765.10 C 356.05 758.99, 357.57 755.91, 361.19 749.99 C 364.81 744.08, 367.26 741.10, 372.28 735.51 C 377.30 729.92, 380.35 727.15, 386.27 722.04 C 392.19 716.93, 395.58 714.51, 401.86 709.98 C 408.14 705.45, 411.57 703.34, 417.67 699.39 C 423.77 695.44, 426.95 693.64, 432.35 690.22 C 437.75 686.81, 440.42 685.25, 444.68 682.33 C 448.94 679.40, 451.03 678.28, 453.67 675.60 C 456.31 672.92, 457.32 671.53, 457.89 668.93 C 458.46 666.33, 457.98 664.67, 456.50 662.61 C 455.03 660.55, 453.43 659.27, 450.50 658.64 C 447.57 658.02, 445.33 658.23, 441.86 659.49 C 438.39 660.75, 436.45 662.12, 433.15 664.94 C 429.84 667.76, 428.07 669.65, 425.32 673.58 C 422.57 677.52, 421.16 680.06, 419.37 684.63 C 417.58 689.20, 416.89 691.95, 416.37 696.43 C 415.84 700.91, 415.67 703.43, 416.73 707.04 C 417.80 710.66, 419.02 712.62, 421.70 714.50 C 424.38 716.39, 426.71 717.07, 430.12 716.48 C 433.53 715.89, 435.46 714.43, 438.76 711.56 C 442.07 708.69, 443.70 706.45, 446.64 702.14 C 449.59 697.82, 451.08 694.84, 453.51 689.98 C 455.93 685.12, 457.36 681.93, 458.79 677.84 C 460.21 673.75, 460.85 671.53, 460.62 669.52 C 460.40 667.51, 458.80 666.94, 457.65 667.80 C 456.49 668.65, 455.36 670.34, 454.84 673.80 C 454.33 677.26, 454.57 680.41, 455.08 685.08 C 455.58 689.74, 456.07 692.79, 457.37 697.12 C 458.67 701.46, 459.26 703.85, 461.58 706.75 C 463.90 709.66, 465.72 710.97, 468.97 711.64 C 472.22 712.32, 474.42 711.94, 477.85 710.14 C 481.29 708.35, 482.89 706.35, 486.14 702.67 C 489.40 698.99, 491.06 696.26, 494.13 691.73 C 497.19 687.21, 499.00 683.96, 501.48 680.05 C 503.95 676.14, 505.51 674.16, 506.49 672.19 C 507.48 670.22, 506.61 669.51, 506.39 670.20 C 506.18 670.90, 505.58 672.37, 505.41 675.64 C 505.24 678.91, 505.34 681.97, 505.54 686.57 C 505.73 691.17, 505.68 694.33, 506.39 698.64 C 507.10 702.95, 507.21 705.36, 509.07 708.12 C 510.93 710.89, 512.71 711.96, 515.68 712.46 C 518.65 712.95, 520.65 712.50, 523.91 710.58 C 527.18 708.66, 528.72 706.44, 532.01 702.85 C 535.31 699.26, 537.15 696.55, 540.40 692.62 C 543.65 688.70, 545.72 686.16, 548.26 683.21 C 550.79 680.25, 551.97 678.93, 553.07 677.85 C 554.17 676.77, 553.56 676.58, 553.76 677.80 C 553.95 679.03, 553.71 680.62, 554.04 683.98 C 554.37 687.33, 554.62 690.15, 555.41 694.57 C 556.20 699.00, 556.51 701.89, 557.98 706.10 C 559.46 710.31, 560.20 712.68, 562.78 715.62 C 565.35 718.56, 567.22 720.00, 570.86 720.79 C 574.50 721.58, 576.86 721.13, 580.99 719.57 C 585.12 718.01, 587.71 716.01, 591.50 712.99 C 595.30 709.98, 597.35 707.70, 599.98 704.49 C 602.60 701.27, 604.22 698.84, 604.63 696.90 C 605.04 694.96, 603.79 694.05, 602.03 694.79 C 600.26 695.53, 598.63 697.90, 595.78 700.60 C 592.93 703.30, 591.16 705.59, 587.77 708.29 C 584.37 710.99, 581.94 712.76, 578.81 714.09 C 575.67 715.43, 574.37 715.45, 572.09 714.99 C 569.81 714.52, 569.06 713.94, 567.42 711.78 C 565.78 709.62, 564.95 707.84, 563.88 704.19 C 562.82 700.54, 562.69 697.80, 562.10 693.52 C 561.50 689.23, 561.84 686.43, 560.93 682.76 C 560.01 679.08, 559.53 676.99, 557.52 675.13 C 555.51 673.26, 553.64 672.61, 550.89 673.41 C 548.15 674.22, 546.78 676.05, 543.80 679.16 C 540.83 682.28, 539.25 685.09, 536.02 689.00 C 532.78 692.91, 530.78 695.48, 527.63 698.71 C 524.49 701.94, 522.57 703.38, 520.29 705.15 C 518.02 706.92, 517.40 707.54, 516.27 707.54 C 515.15 707.54, 515.32 707.11, 514.66 705.14 C 514.01 703.18, 513.41 701.48, 512.98 697.71 C 512.55 693.94, 512.67 690.83, 512.51 686.30 C 512.35 681.77, 512.93 678.69, 512.18 675.07 C 511.43 671.45, 510.71 669.51, 508.74 668.18 C 506.77 666.84, 504.77 666.65, 502.35 668.41 C 499.93 670.18, 499.16 672.94, 496.63 677.01 C 494.10 681.08, 492.64 684.37, 489.70 688.74 C 486.76 693.11, 484.91 695.67, 481.94 698.86 C 478.96 702.06, 477.19 703.28, 474.83 704.72 C 472.47 706.16, 471.75 706.39, 470.13 706.06 C 468.50 705.72, 468.01 705.18, 466.70 703.06 C 465.38 700.94, 464.44 699.17, 463.57 695.45 C 462.71 691.74, 462.63 688.78, 462.38 684.47 C 462.14 680.16, 462.78 677.26, 462.36 673.90 C 461.94 670.55, 461.51 668.87, 460.28 667.70 C 459.05 666.53, 457.64 666.43, 456.21 668.05 C 454.78 669.67, 454.59 671.85, 453.11 675.78 C 451.62 679.71, 450.98 683.05, 448.79 687.69 C 446.60 692.33, 444.98 695.15, 442.17 698.98 C 439.37 702.81, 437.47 704.64, 434.78 706.85 C 432.08 709.06, 430.62 709.43, 428.69 710.03 C 426.76 710.62, 426.29 710.76, 425.11 709.84 C 423.93 708.91, 423.40 707.95, 422.78 705.39 C 422.17 702.83, 421.69 700.77, 422.02 697.02 C 422.36 693.27, 422.87 690.64, 424.46 686.63 C 426.04 682.62, 427.40 680.26, 429.94 676.97 C 432.48 673.67, 434.27 672.12, 437.17 670.14 C 440.07 668.16, 441.92 667.87, 444.46 667.07 C 447.00 666.26, 448.18 666.36, 449.88 666.12 C 451.58 665.88, 452.30 665.61, 452.95 665.87 C 453.61 666.13, 453.77 666.24, 453.14 667.43 C 452.51 668.63, 451.99 669.55, 449.80 671.85 C 447.61 674.15, 446.06 675.87, 442.18 678.95 C 438.31 682.04, 435.68 683.72, 430.42 687.28 C 425.17 690.83, 422.00 692.69, 415.93 696.74 C 409.86 700.78, 406.41 702.91, 400.08 707.51 C 393.75 712.11, 390.31 714.55, 384.28 719.73 C 378.25 724.91, 375.12 727.70, 369.94 733.40 C 364.76 739.11, 362.20 742.13, 358.39 748.26 C 354.57 754.40, 352.91 757.61, 350.87 764.07 C 348.82 770.52, 348.22 774.00, 348.15 780.54 C 348.09 787.08, 348.69 790.63, 350.54 796.77 C 352.38 802.92, 354.08 806.18, 357.38 811.27 C 360.68 816.37, 362.93 818.96, 367.03 822.25 C 371.12 825.54, 373.67 827.08, 377.86 827.72 C 382.05 828.36, 384.72 827.86, 387.98 825.46 C 391.24 823.06, 392.43 820.80, 394.17 815.73 C 395.90 810.67, 396.21 807.39, 396.66 800.13 C 397.11 792.88, 396.90 788.39, 396.41 779.46 C 395.93 770.53, 395.24 765.31, 394.22 755.49 C 393.21 745.67, 392.46 740.22, 391.35 730.37 C 390.24 720.52, 389.55 715.26, 388.67 706.23 C 387.79 697.20, 387.46 692.50, 386.93 685.24 C 386.41 677.98, 386.76 674.48, 386.06 669.92 C 385.36 665.36, 385.06 663.70, 383.44 662.44 C 381.82 661.18, 379.82 661.59, 377.97 663.61 C 376.12 665.64, 375.92 668.32, 374.20 672.58 C 372.47 676.85, 371.61 680.27, 369.34 684.94 C 367.07 689.61, 365.53 692.35, 362.85 695.95 C 360.17 699.54, 358.52 701.10, 355.95 702.93 C 353.38 704.76, 352.25 705.06, 350.01 705.09 C 347.77 705.12, 346.87 704.72, 344.75 703.07 C 342.62 701.42, 341.31 699.94, 339.37 696.82 C 337.42 693.69, 336.56 691.22, 335.03 687.45 C 333.50 683.68, 333.23 681.12, 331.72 677.97 C 330.21 674.82, 329.42 673.14, 327.47 671.69 C 325.53 670.25, 323.97 669.89, 321.98 670.74 C 319.99 671.59, 318.79 672.83, 317.51 675.92 C 316.23 679.02, 316.40 681.71, 315.58 686.22 C 314.76 690.72, 314.33 693.63, 313.42 698.45 C 312.51 703.26, 311.96 706.16, 311.03 710.29 C 310.09 714.43, 309.14 716.44, 308.75 719.12 C 308.37 721.80, 309.04 722.83, 309.10 723.70 C 309.16 724.57, 309.66 724.44, 309.06 723.46 C 308.47 722.49, 307.95 721.48, 306.13 718.83 C 304.30 716.18, 302.77 714.34, 299.93 710.21 C 297.09 706.08, 295.48 703.27, 291.91 698.17 C 288.34 693.07, 286.34 689.96, 282.09 684.71 C 277.85 679.45, 275.41 676.57, 270.70 671.88 C 265.98 667.20, 263.25 664.90, 258.52 661.29 C 253.80 657.69, 251.23 656.08, 247.07 653.87 C 242.91 651.67, 240.69 650.42, 237.73 650.27 C 234.77 650.12, 233.12 651.77, 232.28 653.14 C 231.45 654.50, 231.85 656.23, 233.55 657.08 C 235.26 657.93, 237.24 658.23, 240.82 657.40 C 244.39 656.57, 246.91 655.39, 251.43 652.94 C 255.95 650.49, 258.89 648.90, 263.41 645.15 C 267.92 641.40, 270.53 639.07, 274.01 634.20 C 277.49 629.34, 279.12 626.39, 280.80 620.82 C 282.48 615.25, 282.81 612.03, 282.40 606.34 C 282.00 600.65, 281.03 597.56, 278.78 592.39 C 276.52 587.22, 274.63 584.54, 271.12 580.49 C 267.62 576.44, 265.41 574.45, 261.25 572.15 C 257.09 569.85, 254.56 568.92, 250.32 568.97 C 246.09 569.03, 243.68 569.78, 240.08 572.43 C 236.49 575.07, 234.93 577.22, 232.35 582.17 C 229.77 587.13, 228.79 590.29, 227.20 597.19 C 225.60 604.08, 225.05 608.19, 224.39 616.66 C 223.73 625.12, 223.65 629.98, 223.88 639.52 C 224.11 649.06, 224.53 654.41, 225.52 664.36 C 226.51 674.31, 227.37 679.81, 228.83 689.27 C 230.28 698.73, 231.27 703.82, 232.81 711.65 C 234.35 719.48, 234.98 723.38, 236.52 728.44 C 238.06 733.50, 238.74 735.62, 240.51 736.95 C 242.28 738.28, 244.30 737.69, 245.39 735.07 C 246.47 732.45, 245.83 729.80, 245.92 723.85 C 246.02 717.90, 245.88 713.68, 245.85 705.30 C 245.81 696.92, 245.78 691.58, 245.76 681.93 C 245.73 672.29, 245.72 666.67, 245.73 657.08 C 245.73 647.50, 245.69 642.35, 245.78 634.01 C 245.87 625.68, 245.99 621.56, 246.17 615.41 C 246.35 609.25, 246.76 606.88, 246.67 603.25 C 246.58 599.63, 246.51 598.49, 245.70 597.27 C 244.90 596.06, 243.53 595.99, 242.65 597.18" style="stroke: black; fill: black;"/><path d="M 743.49,613.31 C 743.12 612.06, 742.38 611.15, 740.50 610.22 C 738.63 609.30, 737.13 608.52, 734.11 608.69 C 731.09 608.87, 728.99 609.31, 725.40 611.09 C 721.81 612.88, 719.88 614.12, 716.17 617.61 C 712.47 621.10, 710.42 623.19, 706.88 628.55 C 703.33 633.91, 701.35 637.22, 698.47 644.39 C 695.60 651.55, 694.11 656.03, 692.49 664.38 C 690.86 672.74, 690.32 677.75, 690.34 686.18 C 690.36 694.60, 690.79 699.27, 692.59 706.50 C 694.38 713.73, 695.77 717.36, 699.30 722.32 C 702.84 727.28, 705.36 729.42, 710.26 731.29 C 715.15 733.16, 718.36 733.20, 723.79 731.68 C 729.21 730.15, 732.23 728.26, 737.38 723.68 C 742.52 719.09, 745.22 715.75, 749.52 708.75 C 753.81 701.76, 755.90 697.25, 758.83 688.70 C 761.76 680.15, 762.96 675.01, 764.17 666.01 C 765.38 657.01, 765.52 652.00, 764.88 643.70 C 764.24 635.40, 763.30 631.21, 760.98 624.51 C 758.66 617.80, 756.93 614.69, 753.28 610.18 C 749.62 605.67, 747.17 603.97, 742.72 601.97 C 738.26 599.97, 735.44 599.76, 731.00 600.18 C 726.57 600.59, 724.08 601.67, 720.54 604.03 C 717.00 606.39, 715.22 608.37, 713.31 611.96 C 711.40 615.55, 710.73 618.07, 711.00 621.96 C 711.27 625.85, 712.13 628.39, 714.66 631.41 C 717.18 634.44, 719.38 635.85, 723.62 637.08 C 727.86 638.31, 730.61 638.37, 735.88 637.56 C 741.14 636.75, 744.20 635.71, 749.93 633.02 C 755.66 630.32, 758.83 628.27, 764.54 624.09 C 770.24 619.91, 773.29 617.11, 778.45 612.11 C 783.62 607.12, 786.20 604.03, 790.38 599.11 C 794.57 594.18, 796.82 591.26, 799.36 587.50 C 801.90 583.73, 802.82 581.78, 803.08 580.29 C 803.34 578.80, 801.54 578.19, 800.67 580.05 C 799.80 581.91, 799.64 584.08, 798.72 589.59 C 797.80 595.10, 797.16 599.21, 796.07 607.59 C 794.98 615.96, 794.28 621.35, 793.27 631.47 C 792.27 641.58, 791.69 647.56, 791.04 658.15 C 790.38 668.75, 790.10 674.68, 790.00 684.43 C 789.90 694.19, 789.98 699.26, 790.53 706.91 C 791.09 714.57, 791.32 717.98, 792.78 722.70 C 794.23 727.43, 795.24 729.26, 797.82 730.55 C 800.40 731.84, 802.95 731.42, 805.68 729.16 C 808.40 726.89, 809.43 724.17, 811.45 719.21 C 813.47 714.24, 814.35 710.73, 815.80 704.33 C 817.24 697.93, 817.86 693.88, 818.67 687.19 C 819.48 680.50, 819.80 676.81, 819.86 670.89 C 819.91 664.97, 819.75 662.12, 818.94 657.60 C 818.13 653.07, 817.68 651.00, 815.80 648.26 C 813.93 645.52, 812.19 644.73, 809.55 643.89 C 806.91 643.04, 805.08 643.10, 802.59 644.02 C 800.11 644.93, 798.48 646.13, 797.14 648.45 C 795.81 650.77, 795.36 652.84, 795.93 655.62 C 796.49 658.39, 797.45 660.41, 799.96 662.32 C 802.48 664.23, 804.62 665.10, 808.50 665.16 C 812.37 665.22, 814.71 664.55, 819.34 662.61 C 823.97 660.67, 826.60 659.25, 831.63 655.45 C 836.66 651.65, 839.47 649.16, 844.49 643.63 C 849.50 638.10, 852.15 634.62, 856.69 627.78 C 861.24 620.94, 863.55 616.78, 867.23 609.42 C 870.91 602.05, 872.57 597.81, 875.09 590.95 C 877.61 584.10, 878.55 580.48, 879.81 575.15 C 881.08 569.83, 881.94 567.32, 881.41 564.33 C 880.88 561.34, 879.07 560.13, 877.15 560.20 C 875.23 560.27, 873.48 561.21, 871.82 564.68 C 870.15 568.15, 869.93 571.07, 868.84 577.55 C 867.74 584.04, 867.19 588.28, 866.34 597.12 C 865.49 605.96, 865.05 611.40, 864.60 621.76 C 864.14 632.12, 863.98 638.17, 864.06 648.93 C 864.14 659.70, 864.31 665.61, 864.99 675.58 C 865.66 685.55, 866.15 690.65, 867.43 698.79 C 868.71 706.93, 869.47 710.62, 871.38 716.27 C 873.29 721.93, 874.24 724.26, 876.99 727.07 C 879.73 729.87, 881.92 730.64, 885.11 730.30 C 888.30 729.96, 890.43 728.51, 892.92 725.38 C 895.42 722.24, 896.41 719.17, 897.57 714.62 C 898.74 710.07, 898.84 706.81, 898.75 702.62 C 898.65 698.42, 898.13 695.42, 897.10 693.66 C 896.08 691.90, 894.49 692.07, 893.60 693.80 C 892.72 695.54, 893.15 698.49, 892.69 702.34 C 892.24 706.19, 892.28 709.13, 891.32 713.05 C 890.36 716.97, 889.29 719.40, 887.90 721.94 C 886.51 724.48, 885.93 725.32, 884.38 725.74 C 882.83 726.17, 882.10 726.18, 880.13 724.06 C 878.17 721.93, 876.55 720.27, 874.55 715.13 C 872.54 709.98, 871.53 706.28, 870.10 698.34 C 868.67 690.40, 868.13 685.30, 867.39 675.41 C 866.66 665.53, 866.48 659.62, 866.44 648.92 C 866.40 638.22, 866.57 632.18, 867.19 621.90 C 867.81 611.61, 868.35 606.19, 869.53 597.49 C 870.71 588.80, 871.61 584.59, 873.11 578.43 C 874.60 572.26, 876.09 569.93, 877.00 566.66 C 877.92 563.39, 877.80 562.53, 877.68 562.10 C 877.56 561.67, 876.75 562.04, 876.38 564.49 C 876.02 566.94, 876.73 569.26, 875.85 574.34 C 874.97 579.41, 874.25 583.11, 871.98 589.86 C 869.71 596.60, 868.07 600.82, 864.49 608.05 C 860.91 615.29, 858.60 619.39, 854.08 626.02 C 849.56 632.66, 846.88 636.03, 841.90 641.22 C 836.91 646.40, 834.04 648.71, 829.15 651.96 C 824.27 655.21, 821.54 656.26, 817.48 657.47 C 813.41 658.68, 811.45 658.25, 808.81 658.02 C 806.18 657.79, 805.47 657.07, 804.30 656.32 C 803.12 655.56, 803.08 655.09, 802.94 654.25 C 802.80 653.40, 803.12 652.96, 803.59 652.10 C 804.05 651.24, 804.41 650.55, 805.27 649.95 C 806.14 649.35, 806.80 648.76, 807.92 649.09 C 809.04 649.43, 809.61 649.70, 810.88 651.60 C 812.16 653.50, 813.33 654.73, 814.30 658.59 C 815.27 662.44, 815.67 665.28, 815.75 670.90 C 815.83 676.52, 815.55 680.21, 814.69 686.69 C 813.83 693.16, 813.04 697.17, 811.45 703.28 C 809.86 709.39, 808.64 712.79, 806.73 717.23 C 804.82 721.68, 803.33 723.45, 801.89 725.50 C 800.45 727.55, 800.65 728.26, 799.53 727.48 C 798.42 726.71, 797.55 725.80, 796.32 721.63 C 795.10 717.47, 794.19 714.10, 793.43 706.66 C 792.66 699.22, 792.49 694.12, 792.50 684.45 C 792.51 674.78, 792.78 668.85, 793.48 658.31 C 794.18 647.77, 794.77 641.80, 795.99 631.77 C 797.22 621.73, 798.15 616.40, 799.61 608.13 C 801.08 599.86, 802.25 595.96, 803.31 590.41 C 804.37 584.87, 805.43 582.86, 804.91 580.40 C 804.40 577.95, 802.63 577.27, 800.73 578.13 C 798.83 579.00, 798.07 581.03, 795.41 584.74 C 792.74 588.45, 791.30 591.72, 787.42 596.68 C 783.53 601.65, 780.99 604.68, 775.98 609.56 C 770.97 614.44, 767.92 617.15, 762.37 621.08 C 756.82 625.01, 753.65 626.88, 748.22 629.22 C 742.79 631.55, 739.82 632.24, 735.24 632.74 C 730.65 633.23, 728.43 632.73, 725.28 631.68 C 722.13 630.63, 721.07 629.51, 719.49 627.48 C 717.91 625.46, 717.54 624.09, 717.39 621.55 C 717.25 619.01, 717.50 617.37, 718.78 614.79 C 720.06 612.20, 721.22 610.59, 723.79 608.65 C 726.35 606.71, 728.15 605.65, 731.61 605.10 C 735.07 604.54, 737.29 604.39, 741.07 605.87 C 744.85 607.34, 747.12 608.54, 750.52 612.48 C 753.91 616.42, 755.74 619.26, 758.05 625.55 C 760.36 631.84, 761.38 635.91, 762.06 643.93 C 762.74 651.95, 762.64 656.88, 761.45 665.65 C 760.27 674.41, 759.06 679.48, 756.13 687.76 C 753.21 696.05, 751.05 700.43, 746.83 707.08 C 742.61 713.73, 739.85 716.82, 735.03 721.01 C 730.21 725.20, 727.44 726.67, 722.75 728.03 C 718.06 729.38, 715.71 729.35, 711.58 727.80 C 707.44 726.26, 705.29 724.73, 702.09 720.32 C 698.90 715.90, 697.37 712.57, 695.62 705.74 C 693.87 698.91, 693.35 694.32, 693.33 686.17 C 693.30 678.02, 693.84 673.08, 695.50 664.99 C 697.17 656.90, 698.69 652.52, 701.64 645.71 C 704.59 638.89, 706.66 635.73, 710.25 630.91 C 713.83 626.09, 716.02 624.26, 719.57 621.62 C 723.12 618.97, 725.00 618.49, 728.00 617.69 C 730.99 616.88, 732.32 617.67, 734.53 617.60 C 736.74 617.52, 737.49 617.54, 739.05 617.32 C 740.62 617.10, 741.46 617.29, 742.35 616.49 C 743.23 615.69, 743.86 614.57, 743.49 613.31" style="stroke: black; fill: black;"/><path d="M 836.57,655.65 C 837.49 656.59, 838.22 657.36, 841.08 657.45 C 843.95 657.54, 845.82 656.84, 850.89 656.10 C 855.95 655.35, 859.55 654.80, 866.40 653.71 C 873.26 652.62, 877.57 651.87, 885.17 650.63 C 892.77 649.38, 897.12 648.60, 904.40 647.47 C 911.69 646.35, 915.70 645.81, 921.58 645.00 C 927.47 644.19, 930.09 644.08, 933.83 643.42 C 937.57 642.77, 939.06 642.52, 940.30 641.74 C 941.54 640.95, 941.44 639.98, 940.04 639.50 C 938.64 639.02, 937.10 639.01, 933.29 639.35 C 929.49 639.69, 926.90 640.26, 921.02 641.20 C 915.13 642.15, 911.14 642.90, 903.87 644.09 C 896.59 645.27, 892.23 646.04, 884.63 647.13 C 877.03 648.22, 872.70 648.82, 865.85 649.53 C 859.00 650.25, 855.39 650.47, 850.36 650.70 C 845.33 650.94, 843.48 650.30, 840.70 650.71 C 837.93 651.12, 837.32 651.75, 836.49 652.74 C 835.66 653.73, 835.65 654.71, 836.57 655.65" style="stroke: black; fill: black;"/></svg>