<?xml version="1.0" encoding="UTF-8"?>
<svg id="canvas" xmlns="http://www.w3.org/2000/svg" viewBox="0 0 718.4 268.78">
  <path d="M19.39,37.48c-.88,1.18-1.18,2.37-1.35,6.02-.17,3.65,.29,6.05,.51,12.22,.22,6.17,.36,10.28,.58,18.62,.22,8.34,.38,13.48,.52,23.06,.14,9.58,.18,15.21,.2,24.84,0,9.63,.04,14.98-.12,23.34-.15,8.36-.35,12.64-.66,18.45-.32,5.8-1.04,8.26-.91,10.57,.13,2.32,1.63,2.42,1.55,1-.08-1.43-.67-3.24-1.96-8.13-1.29-4.9-2.64-8.66-4.5-16.33-1.86-7.68-3.11-12.7-4.8-22.05-1.69-9.35-2.58-14.83-3.64-24.69-1.07-9.87-1.48-15.2-1.68-24.64-.21-9.44-.09-14.27,.67-22.58,.75-8.31,1.41-12.37,3.11-18.97,1.7-6.59,2.91-9.6,5.4-13.99,2.49-4.39,4.09-5.93,7.04-7.94,2.94-2.01,4.44-2.22,7.67-2.1s5.05,.73,8.48,2.7c3.43,1.97,5.51,3.61,8.69,7.14,3.17,3.54,5.03,5.95,7.17,10.54,2.14,4.59,3.08,7.34,3.53,12.42,.44,5.07,.2,7.94-1.29,12.96-1.49,5.03-2.94,7.73-6.16,12.17-3.23,4.44-5.69,6.66-9.97,10.03-4.28,3.37-7.15,4.89-11.43,6.82-4.28,1.93-6.84,1.99-9.96,2.83-3.12,.85-4.33,.65-5.64,1.4s-1.4,1.3-.91,2.34c.48,1.05,1.02,1.97,3.34,2.89,2.32,.92,4.33,.31,8.25,1.74,3.93,1.42,6.67,2.42,11.37,5.4,4.71,2.99,7.47,5.16,12.16,9.52,4.69,4.36,7.11,7.18,11.27,12.29s6.14,8.17,9.54,13.28c3.4,5.1,4.91,7.89,7.47,12.24,2.55,4.35,3.22,6.64,5.31,9.52s3.02,4,5.14,4.89c2.13,.88,3.51,.7,5.48-.47,1.97-1.16,3.24-2.33,4.37-5.35,1.13-3.01,.75-5.37,1.28-9.72,.54-4.36,.69-7.23,1.39-12.05,.7-4.82,1.16-7.75,2.12-12.04,.96-4.3,2.13-6.62,2.68-9.45,.56-2.82,.27-4.01,.1-4.67-.17-.67-1.01-.19-.96,1.36,.05,1.55,.14,3.22,1.21,6.38,1.07,3.17,2.2,5.57,4.15,9.44,1.95,3.88,3.06,6.42,5.59,9.96,2.53,3.54,3.85,5.58,7.06,7.75,3.22,2.17,5.37,3.19,9.02,3.11,3.64-.09,5.79-1.12,9.21-3.54,3.42-2.42,4.95-4.48,7.88-8.57,2.94-4.09,4.33-7,6.8-11.88,2.47-4.87,3.82-8.24,5.56-12.49,1.73-4.25,2.79-6.55,3.1-8.75,.31-2.19-1.19-3.13-1.54-2.23-.35,.9-.55,2.36-.21,6.73,.35,4.37,1.01,7.92,1.95,15.13,.93,7.21,1.55,11.92,2.72,20.93,1.18,9.01,1.92,14.27,3.15,24.1s1.98,15.28,2.99,25.06c1.01,9.79,1.67,15.02,2.05,23.85,.38,8.83,.48,13.34-.14,20.32-.61,6.98-1.27,10.2-2.92,14.6-1.65,4.4-2.91,5.71-5.31,7.4-2.4,1.68-3.61,1.71-6.68,1.02-3.07-.69-5.14-1.64-8.67-4.47-3.54-2.82-5.85-5.08-8.99-9.65-3.15-4.58-4.9-7.57-6.75-13.23-1.85-5.65-2.48-8.93-2.51-15.03-.03-6.1,.48-9.34,2.35-15.45,1.88-6.11,3.4-9.19,7.02-15.11,3.62-5.91,6.07-8.89,11.09-14.48,5.02-5.59,8.07-8.36,13.99-13.47,5.92-5.11,9.31-7.53,15.59-12.06,6.28-4.53,9.71-6.64,15.81-10.59,6.1-3.95,9.28-5.75,14.68-9.17,5.4-3.41,8.07-4.97,12.33-7.89,4.26-2.93,6.35-4.05,8.99-6.73,2.64-2.68,3.65-4.07,4.22-6.67,.57-2.6,.09-4.26-1.39-6.32-1.47-2.06-3.07-3.34-6-3.97-2.93-.62-5.17-.41-8.64,.85-3.47,1.26-5.41,2.63-8.71,5.45-3.31,2.82-5.08,4.71-7.83,8.64-2.75,3.94-4.16,6.48-5.95,11.05s-2.48,7.32-3,11.8c-.53,4.48-.7,7,.36,10.61,1.07,3.62,2.29,5.58,4.97,7.46,2.68,1.89,5.01,2.57,8.42,1.98,3.41-.59,5.34-2.05,8.64-4.92,3.31-2.87,4.94-5.11,7.88-9.42,2.95-4.32,4.44-7.3,6.87-12.16,2.42-4.86,3.85-8.05,5.28-12.14,1.42-4.09,2.06-6.31,1.83-8.32-.22-2.01-1.82-2.58-2.97-1.72-1.16,.85-2.29,2.54-2.81,6-.51,3.46-.27,6.61,.24,11.28,.5,4.66,.99,7.71,2.29,12.04,1.3,4.34,1.89,6.73,4.21,9.63,2.32,2.91,4.14,4.22,7.39,4.89,3.25,.68,5.45,.3,8.88-1.5,3.44-1.79,5.04-3.79,8.29-7.47,3.26-3.68,4.92-6.41,7.99-10.94,3.06-4.52,4.87-7.77,7.35-11.68,2.47-3.91,4.03-5.89,5.01-7.86,.99-1.97,.12-2.68-.1-1.99-.21,.7-.81,2.17-.98,5.44-.17,3.27-.07,6.33,.13,10.93,.19,4.6,.14,7.76,.85,12.07,.71,4.31,.82,6.72,2.68,9.48,1.86,2.77,3.64,3.84,6.61,4.34,2.97,.49,4.97,.04,8.23-1.88,3.27-1.92,4.81-4.14,8.1-7.73,3.3-3.59,5.14-6.3,8.39-10.23,3.25-3.92,5.32-6.46,7.86-9.41,2.53-2.96,3.71-4.28,4.81-5.36,1.1-1.08,.49-1.27,.69-.05,.19,1.23-.05,2.82,.28,6.18,.33,3.35,.58,6.17,1.37,10.59,.79,4.43,1.1,7.32,2.57,11.53,1.48,4.21,2.22,6.58,4.8,9.52,2.57,2.94,4.44,4.38,8.08,5.17,3.64,.79,6,.34,10.13-1.22s6.72-3.56,10.51-6.58c3.8-3.01,5.85-5.29,8.48-8.5,2.62-3.22,4.24-5.65,4.65-7.59,.41-1.94-.84-2.85-2.6-2.11-1.77,.74-3.4,3.11-6.25,5.81-2.85,2.7-4.62,4.99-8.01,7.69-3.4,2.7-5.83,4.47-8.96,5.8-3.14,1.34-4.44,1.36-6.72,.9-2.28-.47-3.03-1.05-4.67-3.21-1.64-2.16-2.47-3.94-3.54-7.59-1.06-3.65-1.19-6.39-1.78-10.67-.6-4.29-.26-7.09-1.17-10.76-.92-3.68-1.4-5.77-3.41-7.63-2.01-1.87-3.88-2.52-6.63-1.72-2.74,.81-4.11,2.64-7.09,5.75-2.97,3.12-4.55,5.93-7.78,9.84-3.24,3.91-5.24,6.48-8.39,9.71-3.14,3.23-5.06,4.67-7.34,6.44-2.27,1.77-2.89,2.39-4.02,2.39s-.95-.43-1.61-2.4c-.65-1.96-1.25-3.66-1.68-7.43-.43-3.77-.31-6.88-.47-11.41-.16-4.53,.42-7.61-.33-11.23s-1.47-5.56-3.44-6.89c-1.97-1.34-3.97-1.53-6.39,.23-2.42,1.77-3.19,4.53-5.72,8.6s-3.99,7.36-6.93,11.73-4.79,6.93-7.76,10.12c-2.98,3.2-4.75,4.42-7.11,5.86-2.36,1.44-3.08,1.67-4.7,1.34-1.63-.34-2.12-.88-3.43-3-1.32-2.12-2.26-3.89-3.13-7.61-.86-3.71-.94-6.67-1.19-10.98-.24-4.31,.4-7.21-.02-10.57-.42-3.35-.85-5.03-2.08-6.2s-2.64-1.27-4.07,.35c-1.43,1.62-1.62,3.8-3.1,7.73-1.49,3.93-2.13,7.27-4.32,11.91s-3.81,7.46-6.62,11.29c-2.8,3.83-4.7,5.66-7.39,7.87-2.7,2.21-4.16,2.58-6.09,3.18-1.93,.59-2.4,.73-3.58-.19-1.18-.93-1.71-1.89-2.33-4.45-.61-2.56-1.09-4.62-.76-8.37,.34-3.75,.85-6.38,2.44-10.39,1.58-4.01,2.94-6.37,5.48-9.66,2.54-3.3,4.33-4.85,7.23-6.83,2.9-1.98,4.75-2.27,7.29-3.07,2.54-.81,3.72-.71,5.42-.95,1.7-.24,2.42-.51,3.07-.25,.66,.26,.82,.37,.19,1.56-.63,1.2-1.15,2.12-3.34,4.42-2.19,2.3-3.74,4.02-7.62,7.1-3.87,3.09-6.5,4.77-11.76,8.33-5.25,3.55-8.42,5.41-14.49,9.46-6.07,4.04-9.52,6.17-15.85,10.77-6.33,4.6-9.77,7.04-15.8,12.22s-9.16,7.97-14.34,13.67c-5.18,5.71-7.74,8.73-11.55,14.86-3.82,6.14-5.48,9.35-7.52,15.81-2.05,6.45-2.65,9.93-2.72,16.47-.06,6.54,.54,10.09,2.39,16.23,1.84,6.15,3.54,9.41,6.84,14.5,3.3,5.1,5.55,7.69,9.65,10.98,4.09,3.29,6.64,4.83,10.83,5.47,4.19,.64,6.86,.14,10.12-2.26,3.26-2.4,4.45-4.66,6.19-9.73,1.73-5.06,2.04-8.34,2.49-15.6,.45-7.25,.24-11.74-.25-20.67-.48-8.93-1.17-14.15-2.19-23.97-1.01-9.82-1.76-15.27-2.87-25.12-1.11-9.85-1.8-15.11-2.68-24.14-.88-9.03-1.21-13.73-1.74-20.99-.52-7.26-.17-10.76-.87-15.32s-1-6.22-2.62-7.48-3.62-.85-5.47,1.17c-1.85,2.03-2.05,4.71-3.77,8.97-1.73,4.27-2.59,7.69-4.86,12.36s-3.81,7.41-6.49,11.01c-2.68,3.59-4.33,5.15-6.9,6.98-2.57,1.83-3.7,2.13-5.94,2.16-2.24,.03-3.14-.37-5.26-2.02-2.13-1.65-3.44-3.13-5.38-6.25-1.95-3.13-2.81-5.6-4.34-9.37-1.53-3.77-1.8-6.33-3.31-9.48-1.51-3.15-2.3-4.83-4.25-6.28-1.94-1.44-3.5-1.8-5.49-.95-1.99,.85-3.19,2.09-4.47,5.18-1.28,3.1-1.11,5.79-1.93,10.3-.82,4.5-1.25,7.41-2.16,12.23-.91,4.81-1.46,7.71-2.39,11.84-.94,4.14-1.89,6.15-2.28,8.83-.38,2.68,.29,3.71,.35,4.58s.56,.74-.04-.24c-.59-.97-1.11-1.98-2.93-4.63-1.83-2.65-3.36-4.49-6.2-8.62s-4.45-6.94-8.02-12.04c-3.57-5.1-5.57-8.21-9.82-13.46-4.24-5.26-6.68-8.14-11.39-12.83-4.72-4.68-7.45-6.98-12.18-10.59-4.72-3.6-7.29-5.21-11.45-7.42-4.16-2.2-6.38-3.45-9.34-3.6-2.96-.15-4.61,1.5-5.45,2.87-.83,1.36-.43,3.09,1.27,3.94,1.71,.85,3.69,1.15,7.27,.32,3.57-.83,6.09-2.01,10.61-4.46,4.52-2.45,7.46-4.04,11.98-7.79,4.51-3.75,7.12-6.08,10.6-10.95,3.48-4.86,5.11-7.81,6.79-13.38,1.68-5.57,2.01-8.79,1.6-14.48-.4-5.69-1.37-8.78-3.62-13.95-2.26-5.17-4.15-7.85-7.66-11.9-3.5-4.05-5.71-6.04-9.87-8.34-4.16-2.3-6.69-3.23-10.93-3.18-4.23,.06-6.64,.81-10.24,3.46-3.59,2.64-5.15,4.79-7.73,9.74-2.58,4.96-3.56,8.12-5.15,15.02-1.6,6.89-2.15,11-2.81,19.47-.66,8.46-.74,13.32-.51,22.86,.23,9.54,.65,14.89,1.64,24.84,.99,9.95,1.85,15.45,3.31,24.91,1.45,9.46,2.44,14.55,3.98,22.38,1.54,7.83,2.17,11.73,3.71,16.79,1.54,5.06,2.22,7.18,3.99,8.51,1.77,1.33,3.79,.74,4.88-1.88,1.08-2.62,.44-5.27,.53-11.22,.1-5.95-.04-10.17-.07-18.55-.04-8.38-.07-13.72-.09-23.37-.03-9.64-.04-15.26-.03-24.85,0-9.58-.04-14.73,.05-23.07,.09-8.33,.21-12.45,.39-18.6,.18-6.16,.59-8.53,.5-12.16-.09-3.62-.16-4.76-.97-5.98-.8-1.21-2.17-1.28-3.05-.09" style="fill: #fff; stroke: #fff;"/>
  <path d="M520.23,53.61c-.37-1.25-1.11-2.16-2.99-3.09-1.87-.92-3.37-1.7-6.39-1.53-3.02,.18-5.12,.62-8.71,2.4-3.59,1.79-5.52,3.03-9.23,6.52-3.7,3.49-5.75,5.58-9.29,10.94-3.55,5.36-5.53,8.67-8.41,15.84-2.87,7.16-4.36,11.64-5.98,19.99-1.63,8.36-2.17,13.37-2.15,21.8,.02,8.42,.45,13.09,2.25,20.32,1.79,7.23,3.18,10.86,6.71,15.82,3.54,4.96,6.06,7.1,10.96,8.97,4.89,1.87,8.1,1.91,13.53,.39,5.42-1.53,8.44-3.42,13.59-8,5.14-4.59,7.84-7.93,12.14-14.93,4.29-6.99,6.38-11.5,9.31-20.05s4.13-13.69,5.34-22.69c1.21-9,1.35-14.01,.71-22.31s-1.58-12.49-3.9-19.19c-2.32-6.71-4.05-9.82-7.7-14.33-3.66-4.51-6.11-6.21-10.56-8.21-4.46-2-7.28-2.21-11.72-1.79-4.43,.41-6.92,1.49-10.46,3.85-3.54,2.36-5.32,4.34-7.23,7.93-1.91,3.59-2.58,6.11-2.31,10,.27,3.89,1.13,6.43,3.66,9.45,2.52,3.03,4.72,4.44,8.96,5.67,4.24,1.23,6.99,1.29,12.26,.48,5.26-.81,8.32-1.85,14.05-4.54,5.73-2.7,8.9-4.75,14.61-8.93,5.7-4.18,8.75-6.98,13.91-11.98,5.17-4.99,7.75-8.08,11.93-13,4.19-4.93,6.44-7.85,8.98-11.61,2.54-3.77,3.46-5.72,3.72-7.21,.26-1.49-1.54-2.1-2.41-.24s-1.03,4.03-1.95,9.54c-.92,5.51-1.56,9.62-2.65,18-1.09,8.37-1.79,13.76-2.8,23.88-1,10.11-1.58,16.09-2.23,26.68-.66,10.6-.94,16.53-1.04,26.28-.1,9.76-.02,14.83,.53,22.48,.56,7.66,.79,11.07,2.25,15.79,1.45,4.73,2.46,6.56,5.04,7.85,2.58,1.29,5.13,.87,7.86-1.39,2.72-2.27,3.75-4.99,5.77-9.95,2.02-4.97,2.9-8.48,4.35-14.88,1.44-6.4,2.06-10.45,2.87-17.14s1.13-10.38,1.19-16.3c.05-5.92-.11-8.77-.92-13.29-.81-4.53-1.26-6.6-3.14-9.34-1.87-2.74-3.61-3.53-6.25-4.37-2.64-.85-4.47-.79-6.96,.13-2.48,.91-4.11,2.11-5.45,4.43-1.33,2.32-1.78,4.39-1.21,7.17,.56,2.77,1.52,4.79,4.03,6.7,2.52,1.91,4.66,2.78,8.54,2.84,3.87,.06,6.21-.61,10.84-2.55,4.63-1.94,7.26-3.36,12.29-7.16,5.03-3.8,7.84-6.29,12.86-11.82,5.01-5.53,7.66-9.01,12.2-15.85,4.55-6.84,6.86-11,10.54-18.36,3.68-7.37,5.34-11.61,7.86-18.47,2.52-6.85,3.46-10.47,4.72-15.8,1.27-5.32,2.13-7.83,1.6-10.82-.53-2.99-2.34-4.2-4.26-4.13-1.92,.07-3.67,1.01-5.33,4.48-1.67,3.47-1.89,6.39-2.98,12.87-1.1,6.49-1.65,10.73-2.5,19.57-.85,8.84-1.29,14.28-1.74,24.64-.46,10.36-.62,16.41-.54,27.17,.08,10.77,.25,16.68,.93,26.65,.67,9.97,1.16,15.07,2.44,23.21,1.28,8.14,2.04,11.83,3.95,17.48,1.91,5.66,2.86,7.99,5.61,10.8,2.74,2.8,4.93,3.57,8.12,3.23,3.19-.34,5.32-1.79,7.81-4.92,2.5-3.14,3.49-6.21,4.65-10.76,1.17-4.55,1.27-7.81,1.18-12-.1-4.2-.62-7.2-1.65-8.96-1.02-1.76-2.61-1.59-3.5,.14-.88,1.74-.45,4.69-.91,8.54-.45,3.85-.41,6.79-1.37,10.71s-2.03,6.35-3.42,8.89c-1.39,2.54-1.97,3.38-3.52,3.8-1.55,.43-2.28,.44-4.25-1.68-1.96-2.13-3.58-3.79-5.58-8.93-2.01-5.15-3.02-8.85-4.45-16.79-1.43-7.94-1.97-13.04-2.71-22.93-.73-9.88-.91-15.79-.95-26.49s.13-16.74,.75-27.02c.62-10.29,1.16-15.71,2.34-24.41,1.18-8.69,2.08-12.9,3.58-19.06,1.49-6.17,2.98-8.5,3.89-11.77,.92-3.27,.8-4.13,.68-4.56-.12-.43-.93-.06-1.3,2.39-.36,2.45,.35,4.77-.53,9.85-.88,5.07-1.6,8.77-3.87,15.52-2.27,6.74-3.91,10.96-7.49,18.19-3.58,7.24-5.89,11.34-10.41,17.97-4.52,6.64-7.2,10.01-12.18,15.2-4.99,5.18-7.86,7.49-12.75,10.74-4.88,3.25-7.61,4.3-11.67,5.51-4.07,1.21-6.03,.78-8.67,.55-2.63-.23-3.34-.95-4.51-1.7-1.18-.76-1.22-1.23-1.36-2.07-.14-.85,.18-1.29,.65-2.15,.46-.86,.82-1.55,1.68-2.15,.87-.6,1.53-1.19,2.65-.86,1.12,.34,1.69,.61,2.96,2.51,1.28,1.9,2.45,3.13,3.42,6.99,.97,3.85,1.37,6.69,1.45,12.31s-.2,9.31-1.06,15.79c-.86,6.47-1.65,10.48-3.24,16.59-1.59,6.11-2.81,9.51-4.72,13.95-1.91,4.45-3.4,6.22-4.84,8.27s-1.24,2.76-2.36,1.98c-1.11-.77-1.98-1.68-3.21-5.85-1.22-4.16-2.13-7.53-2.89-14.97-.77-7.44-.94-12.54-.93-22.21s.28-15.6,.98-26.14c.7-10.54,1.29-16.51,2.51-26.54,1.23-10.04,2.16-15.37,3.62-23.64,1.47-8.27,2.64-12.17,3.7-17.72,1.06-5.54,2.12-7.55,1.6-10.01-.51-2.45-2.28-3.13-4.18-2.27-1.9,.87-2.66,2.9-5.32,6.61-2.67,3.71-4.11,6.98-7.99,11.94-3.89,4.97-6.43,8-11.44,12.88s-8.06,7.59-13.61,11.52-8.72,5.8-14.15,8.14c-5.43,2.33-8.4,3.02-12.98,3.52-4.59,.49-6.81-.01-9.96-1.06-3.15-1.05-4.21-2.17-5.79-4.2-1.58-2.02-1.95-3.39-2.1-5.93-.14-2.54,.11-4.18,1.39-6.76,1.28-2.59,2.44-4.2,5.01-6.14,2.56-1.94,4.36-3,7.82-3.55,3.46-.56,5.68-.71,9.46,.77,3.78,1.47,6.05,2.67,9.45,6.61,3.39,3.94,5.22,6.78,7.53,13.07,2.31,6.29,3.33,10.36,4.01,18.38s.58,12.95-.61,21.72c-1.18,8.76-2.39,13.83-5.32,22.11-2.92,8.29-5.08,12.67-9.3,19.32-4.22,6.65-6.98,9.74-11.8,13.93-4.82,4.19-7.59,5.66-12.28,7.02-4.69,1.35-7.04,1.32-11.17-.23-4.14-1.54-6.29-3.07-9.49-7.48-3.19-4.42-4.72-7.75-6.47-14.58s-2.27-11.42-2.29-19.57c-.03-8.15,.51-13.09,2.17-21.18,1.67-8.09,3.19-12.47,6.14-19.28,2.95-6.82,5.02-9.98,8.61-14.8,3.58-4.82,5.77-6.65,9.32-9.29,3.55-2.65,5.43-3.13,8.43-3.93,2.99-.81,4.32-.02,6.53-.09,2.21-.08,2.96-.06,4.52-.28,1.57-.22,2.41-.03,3.3-.83,.88-.8,1.51-1.92,1.14-3.18" style="fill: #fff; stroke: #fff;"/>
  <path d="M613.31,95.95c.92,.94,1.65,1.71,4.51,1.8,2.87,.09,4.74-.61,9.81-1.35,5.06-.75,8.66-1.3,15.51-2.39,6.86-1.09,11.17-1.84,18.77-3.08,7.6-1.25,11.95-2.03,19.23-3.16,7.29-1.12,11.3-1.66,17.18-2.47,5.89-.81,8.51-.92,12.25-1.58,3.74-.65,5.23-.9,6.47-1.68,1.24-.79,1.14-1.76-.26-2.24-1.4-.48-2.94-.49-6.75-.15-3.8,.34-6.39,.91-12.27,1.85-5.89,.95-9.88,1.7-17.15,2.89-7.28,1.18-11.64,1.95-19.24,3.04-7.6,1.09-11.93,1.69-18.78,2.4-6.85,.72-10.46,.94-15.49,1.17-5.03,.24-6.88-.4-9.66,.01-2.77,.41-3.38,1.04-4.21,2.03s-.84,1.97,.08,2.91" style="fill: #fff; stroke: #fff;"/>
</svg>